<?xml version="1.0" encoding="UTF-8" standalone="no"?>
<svg
   xmlns:dc="http://purl.org/dc/elements/1.1/"
   xmlns:cc="http://creativecommons.org/ns#"
   xmlns:rdf="http://www.w3.org/1999/02/22-rdf-syntax-ns#"
   xmlns:svg="http://www.w3.org/2000/svg"
   xmlns="http://www.w3.org/2000/svg"
   xmlns:sodipodi="http://sodipodi.sourceforge.net/DTD/sodipodi-0.dtd"
   xmlns:inkscape="http://www.inkscape.org/namespaces/inkscape"
   sodipodi:docname="organograna.svg"
   inkscape:version="1.0 (4035a4fb49, 2020-05-01)"
   id="svg1135"
   version="1.1"
   viewBox="0 0 127.95318 30.811865"
   height="116.45429"
   width="483.60254">
  <defs
     id="defs1129" />
  <sodipodi:namedview
     units="px"
     inkscape:window-maximized="1"
     inkscape:window-y="-8"
     inkscape:window-x="-8"
     inkscape:window-height="1017"
     inkscape:window-width="2560"
     fit-margin-bottom="0"
     fit-margin-right="5"
     fit-margin-left="0"
     fit-margin-top="0"
     showgrid="false"
     inkscape:document-rotation="0"
     inkscape:current-layer="g1014"
     inkscape:document-units="mm"
     inkscape:cy="9.1600183"
     inkscape:cx="-42.656743"
     inkscape:zoom="1.4"
     inkscape:pageshadow="2"
     inkscape:pageopacity="0.0"
     borderopacity="1.0"
     bordercolor="#666666"
     pagecolor="#ffffff"
     id="base"
     showguides="false" />
  <metadata
     id="metadata1132">
    <rdf:RDF>
      <cc:Work
         rdf:about="">
        <dc:format>image/svg+xml</dc:format>
        <dc:type
           rdf:resource="http://purl.org/dc/dcmitype/StillImage" />
        <dc:title></dc:title>
      </cc:Work>
    </rdf:RDF>
  </metadata>
  <g
     transform="translate(-185.70829,-82.915498)"
     id="layer1"
     inkscape:groupmode="layer"
     inkscape:label="Layer 1">
    <g
       id="g1014"
       transform="translate(132.41238,-45.445968)">
      <g
         aria-label="organograna"
         id="text875"
         style="font-style:normal;font-weight:normal;font-size:16.9333px;line-height:21.1666px;font-family:sans-serif;fill:#767676;fill-opacity:0.937255;stroke:none;stroke-width:0.264583"
         transform="translate(-10.982605,-5.3615652)">
        <path
           d="m 93.842064,153.78563 q -1.202265,0 -2.167463,-0.54187 -0.948265,-0.5588 -1.507063,-1.54093 -0.558799,-0.99906 -0.558799,-2.31986 0,-1.3208 0.558799,-2.30293 0.575732,-0.99906 1.54093,-1.54093 0.965198,-0.5588 2.150529,-0.5588 1.202264,0 2.150529,0.5588 0.965198,0.54187 1.523997,1.54093 0.575732,0.98213 0.575732,2.30293 0,1.3208 -0.575732,2.31986 -0.558799,0.98213 -1.523997,1.54093 -0.965198,0.54187 -2.167462,0.54187 z m 0,-1.54093 q 0.643465,0 1.185331,-0.32174 0.558799,-0.32173 0.897465,-0.94826 0.338666,-0.64347 0.338666,-1.59173 0,-0.94827 -0.338666,-1.5748 -0.321733,-0.64346 -0.880532,-0.9652 -0.541866,-0.32173 -1.185331,-0.32173 -0.643465,0 -1.202264,0.32173 -0.541866,0.32174 -0.880532,0.9652 -0.338666,0.62653 -0.338666,1.5748 0,0.94826 0.338666,1.59173 0.338666,0.62653 0.880532,0.94826 0.541865,0.32174 1.185331,0.32174 z"
           style="font-style:normal;font-variant:normal;font-weight:500;font-stretch:normal;font-size:16.9333px;font-family:'DM Sans';-inkscape-font-specification:'DM Sans Medium';fill:#767676;fill-opacity:0.937255;stroke-width:0.264583"
           id="path904" />
        <path
           d="m 100.0669,153.58243 v -8.39892 h 1.60867 l 0.1524,1.59173 q 0.44026,-0.82973 1.21919,-1.30386 0.79587,-0.49107 1.91347,-0.49107 v 1.8796 h -0.49107 q -0.74506,0 -1.33773,0.254 -0.57573,0.23706 -0.93133,0.82973 -0.33867,0.57573 -0.33867,1.60866 v 4.03013 z"
           style="font-style:normal;font-variant:normal;font-weight:500;font-stretch:normal;font-size:16.9333px;font-family:'DM Sans';-inkscape-font-specification:'DM Sans Medium';fill:#767676;fill-opacity:0.937255;stroke-width:0.264583"
           id="path906" />
        <path
           d="m 109.75513,151.00857 q -0.6604,0 -1.21919,-0.1524 l -0.72814,0.7112 q 0.18627,0.11853 0.4572,0.20319 0.27094,0.0847 0.762,0.1524 0.49107,0.0677 1.33773,0.13547 1.6764,0.1524 2.42146,0.8128 0.74507,0.64346 0.74507,1.7272 0,0.74506 -0.4064,1.40546 -0.38947,0.67733 -1.23613,1.08373 -0.82973,0.42333 -2.1336,0.42333 -1.76106,0 -2.86172,-0.67733 -1.08374,-0.6604 -1.08374,-2.01506 0,-0.52493 0.27094,-1.04987 0.28786,-0.50799 0.89746,-0.96519 -0.3556,-0.1524 -0.62653,-0.32174 -0.254,-0.18626 -0.4572,-0.37253 v -0.4064 l 1.45626,-1.49013 q -0.98213,-0.84666 -0.98213,-2.21826 0,-0.82973 0.38947,-1.50706 0.4064,-0.69427 1.1684,-1.10067 0.76199,-0.4064 1.82879,-0.4064 0.7112,0 1.3208,0.2032 h 3.13266 v 1.18533 l -1.49013,0.0847 q 0.4064,0.69426 0.4064,1.54093 0,0.84666 -0.4064,1.524 -0.38947,0.67733 -1.15146,1.08373 -0.74507,0.4064 -1.81187,0.4064 z m 0,-1.40547 q 0.77893,0 1.25307,-0.4064 0.49106,-0.42333 0.49106,-1.18533 0,-0.77893 -0.49106,-1.18533 -0.47414,-0.4064 -1.25307,-0.4064 -0.79586,0 -1.28693,0.4064 -0.47413,0.4064 -0.47413,1.18533 0,0.762 0.47413,1.18533 0.49107,0.4064 1.28693,0.4064 z m -2.25213,5.04613 q 0,0.72813 0.64347,1.08373 0.64346,0.37253 1.60866,0.37253 0.93133,0 1.50707,-0.4064 0.57573,-0.38947 0.57573,-1.04986 0,-0.49107 -0.38947,-0.84667 -0.38946,-0.33867 -1.47319,-0.42333 -0.8128,-0.0508 -1.43933,-0.1524 -0.59267,0.32173 -0.8128,0.69426 -0.22014,0.37254 -0.22014,0.72814 z"
           style="font-style:normal;font-variant:normal;font-weight:500;font-stretch:normal;font-size:16.9333px;font-family:'DM Sans';-inkscape-font-specification:'DM Sans Medium';fill:#767676;fill-opacity:0.937255;stroke-width:0.264583"
           id="path908" />
        <path
           d="m 118.65437,153.78563 q -1.06679,0 -1.76106,-0.3556 -0.69426,-0.3556 -1.03293,-0.93133 -0.33867,-0.59267 -0.33867,-1.28693 0,-1.2192 0.94827,-1.9304 0.94826,-0.7112 2.70933,-0.7112 h 2.20133 v -0.1524 q 0,-0.98213 -0.54187,-1.4732 -0.52493,-0.49106 -1.3716,-0.49106 -0.74506,0 -1.30386,0.37253 -0.54187,0.3556 -0.6604,1.0668 h -1.79493 q 0.0847,-0.9144 0.6096,-1.55786 0.54186,-0.6604 1.35466,-0.99907 0.82973,-0.3556 1.81187,-0.3556 1.76106,0 2.72626,0.93133 0.9652,0.9144 0.9652,2.50613 v 5.16466 h -1.55787 l -0.1524,-1.43933 q -0.3556,0.69426 -1.03293,1.1684 -0.67733,0.47413 -1.778,0.47413 z m 0.3556,-1.45627 q 0.72814,0 1.2192,-0.33866 0.508,-0.3556 0.77893,-0.93133 0.28787,-0.57574 0.3556,-1.27 h -1.99813 q -1.06679,0 -1.52399,0.37253 -0.44027,0.37253 -0.44027,0.93133 0,0.57574 0.42333,0.9144 0.44027,0.32173 1.18533,0.32173 z"
           style="font-style:normal;font-variant:normal;font-weight:500;font-stretch:normal;font-size:16.9333px;font-family:'DM Sans';-inkscape-font-specification:'DM Sans Medium';fill:#767676;fill-opacity:0.937255;stroke-width:0.264583"
           id="path910" />
        <path
           d="m 125.26842,153.58243 v -8.39892 h 1.59173 l 0.13546,1.4732 q 0.38947,-0.77893 1.13453,-1.2192 0.762,-0.4572 1.74413,-0.4572 1.524,0 2.3876,0.94827 0.88053,0.94826 0.88053,2.82786 v 4.82599 h -1.778 v -4.63973 q 0,-2.43839 -1.99813,-2.43839 -0.99906,0 -1.65946,0.7112 -0.64346,0.7112 -0.64346,2.03199 v 4.33493 z"
           style="font-style:normal;font-variant:normal;font-weight:500;font-stretch:normal;font-size:16.9333px;font-family:'DM Sans';-inkscape-font-specification:'DM Sans Medium';fill:#767676;fill-opacity:0.937255;stroke-width:0.264583"
           id="path912" />
        <path
           d="m 139.18494,153.78563 q -1.20226,0 -2.16746,-0.54187 -0.94826,-0.5588 -1.50706,-1.54093 -0.5588,-0.99906 -0.5588,-2.31986 0,-1.3208 0.5588,-2.30293 0.57573,-0.99906 1.54093,-1.54093 0.9652,-0.5588 2.15053,-0.5588 1.20226,0 2.15053,0.5588 0.96519,0.54187 1.52399,1.54093 0.57574,0.98213 0.57574,2.30293 0,1.3208 -0.57574,2.31986 -0.5588,0.98213 -1.52399,1.54093 -0.9652,0.54187 -2.16747,0.54187 z m 0,-1.54093 q 0.64347,0 1.18533,-0.32174 0.5588,-0.32173 0.89747,-0.94826 0.33867,-0.64347 0.33867,-1.59173 0,-0.94827 -0.33867,-1.5748 -0.32173,-0.64346 -0.88053,-0.9652 -0.54187,-0.32173 -1.18533,-0.32173 -0.64347,0 -1.20227,0.32173 -0.54186,0.32174 -0.88053,0.9652 -0.33866,0.62653 -0.33866,1.5748 0,0.94826 0.33866,1.59173 0.33867,0.62653 0.88053,0.94826 0.54187,0.32174 1.18533,0.32174 z"
           style="font-style:normal;font-variant:normal;font-weight:500;font-stretch:normal;font-size:16.9333px;font-family:'DM Sans';-inkscape-font-specification:'DM Sans Medium';fill:#767676;fill-opacity:0.937255;stroke-width:0.264583"
           id="path914" />
        <path
           d="m 148.41729,151.00857 q -0.6604,0 -1.21919,-0.1524 l -0.72814,0.7112 q 0.18627,0.11853 0.4572,0.20319 0.27094,0.0847 0.762,0.1524 0.49107,0.0677 1.33773,0.13547 1.6764,0.1524 2.42146,0.8128 0.74507,0.64346 0.74507,1.7272 0,0.74506 -0.4064,1.40546 -0.38947,0.67733 -1.23613,1.08373 -0.82973,0.42333 -2.1336,0.42333 -1.76106,0 -2.86172,-0.67733 -1.08374,-0.6604 -1.08374,-2.01506 0,-0.52493 0.27094,-1.04987 0.28786,-0.50799 0.89746,-0.96519 -0.3556,-0.1524 -0.62653,-0.32174 -0.254,-0.18626 -0.4572,-0.37253 v -0.4064 l 1.45626,-1.49013 q -0.98213,-0.84666 -0.98213,-2.21826 0,-0.82973 0.38947,-1.50706 0.4064,-0.69427 1.1684,-1.10067 0.762,-0.4064 1.82879,-0.4064 0.7112,0 1.3208,0.2032 h 3.13266 v 1.18533 l -1.49013,0.0847 q 0.4064,0.69426 0.4064,1.54093 0,0.84666 -0.4064,1.524 -0.38946,0.67733 -1.15146,1.08373 -0.74507,0.4064 -1.81187,0.4064 z m 0,-1.40547 q 0.77894,0 1.25307,-0.4064 0.49106,-0.42333 0.49106,-1.18533 0,-0.77893 -0.49106,-1.18533 -0.47413,-0.4064 -1.25307,-0.4064 -0.79586,0 -1.28693,0.4064 -0.47413,0.4064 -0.47413,1.18533 0,0.762 0.47413,1.18533 0.49107,0.4064 1.28693,0.4064 z m -2.25213,5.04613 q 0,0.72813 0.64347,1.08373 0.64347,0.37253 1.60866,0.37253 0.93134,0 1.50707,-0.4064 0.57573,-0.38947 0.57573,-1.04986 0,-0.49107 -0.38947,-0.84667 -0.38946,-0.33867 -1.47319,-0.42333 -0.8128,-0.0508 -1.43933,-0.1524 -0.59267,0.32173 -0.8128,0.69426 -0.22014,0.37254 -0.22014,0.72814 z"
           style="font-style:normal;font-variant:normal;font-weight:500;font-stretch:normal;font-size:16.9333px;font-family:'DM Sans';-inkscape-font-specification:'DM Sans Medium';fill:#767676;fill-opacity:0.937255;stroke-width:0.264583"
           id="path916" />
        <path
           d="m 154.47174,153.58243 v -8.39892 h 1.60867 l 0.1524,1.59173 q 0.44026,-0.82973 1.21919,-1.30386 0.79587,-0.49107 1.91347,-0.49107 v 1.8796 h -0.49107 q -0.74506,0 -1.33773,0.254 -0.57573,0.23706 -0.93133,0.82973 -0.33867,0.57573 -0.33867,1.60866 v 4.03013 z"
           style="font-style:normal;font-variant:normal;font-weight:500;font-stretch:normal;font-size:16.9333px;font-family:'DM Sans';-inkscape-font-specification:'DM Sans Medium';fill:#767676;fill-opacity:0.937255;stroke-width:0.264583"
           id="path918" />
        <path
           d="m 163.76574,153.78563 q -1.0668,0 -1.76106,-0.3556 -0.69427,-0.3556 -1.03293,-0.93133 -0.33867,-0.59267 -0.33867,-1.28693 0,-1.2192 0.94826,-1.9304 0.94827,-0.7112 2.70933,-0.7112 h 2.20133 v -0.1524 q 0,-0.98213 -0.54186,-1.4732 -0.52494,-0.49106 -1.3716,-0.49106 -0.74507,0 -1.30387,0.37253 -0.54186,0.3556 -0.66039,1.0668 h -1.79493 q 0.0847,-0.9144 0.6096,-1.55786 0.54186,-0.6604 1.35466,-0.99907 0.82973,-0.3556 1.81186,-0.3556 1.76107,0 2.72626,0.93133 0.9652,0.9144 0.9652,2.50613 v 5.16466 h -1.55786 l -0.1524,-1.43933 q -0.3556,0.69426 -1.03293,1.1684 -0.67733,0.47413 -1.778,0.47413 z m 0.3556,-1.45627 q 0.72813,0 1.2192,-0.33866 0.508,-0.3556 0.77893,-0.93133 0.28787,-0.57574 0.3556,-1.27 h -1.99813 q -1.0668,0 -1.524,0.37253 -0.44026,0.37253 -0.44026,0.93133 0,0.57574 0.42333,0.9144 0.44026,0.32173 1.18533,0.32173 z"
           style="font-style:normal;font-variant:normal;font-weight:500;font-stretch:normal;font-size:16.9333px;font-family:'DM Sans';-inkscape-font-specification:'DM Sans Medium';fill:#767676;fill-opacity:0.937255;stroke-width:0.264583"
           id="path920" />
        <path
           d="m 170.37979,153.58243 v -8.39892 h 1.59173 l 0.13546,1.4732 q 0.38947,-0.77893 1.13453,-1.2192 0.762,-0.4572 1.74413,-0.4572 1.524,0 2.3876,0.94827 0.88053,0.94826 0.88053,2.82786 v 4.82599 h -1.778 v -4.63973 q 0,-2.43839 -1.99813,-2.43839 -0.99906,0 -1.65946,0.7112 -0.64346,0.7112 -0.64346,2.03199 v 4.33493 z"
           style="font-style:normal;font-variant:normal;font-weight:500;font-stretch:normal;font-size:16.9333px;font-family:'DM Sans';-inkscape-font-specification:'DM Sans Medium';fill:#767676;fill-opacity:0.937255;stroke-width:0.264583"
           id="path922" />
        <path
           d="m 183.21258,153.78563 q -1.0668,0 -1.76106,-0.3556 -0.69427,-0.3556 -1.03294,-0.93133 -0.33866,-0.59267 -0.33866,-1.28693 0,-1.2192 0.94826,-1.9304 0.94827,-0.7112 2.70933,-0.7112 h 2.20133 v -0.1524 q 0,-0.98213 -0.54187,-1.4732 -0.52493,-0.49106 -1.37159,-0.49106 -0.74507,0 -1.30387,0.37253 -0.54186,0.3556 -0.6604,1.0668 h -1.79493 q 0.0847,-0.9144 0.6096,-1.55786 0.54187,-0.6604 1.35467,-0.99907 0.82973,-0.3556 1.81186,-0.3556 1.76106,0 2.72626,0.93133 0.9652,0.9144 0.9652,2.50613 v 5.16466 h -1.55786 l -0.1524,-1.43933 q -0.3556,0.69426 -1.03293,1.1684 -0.67734,0.47413 -1.778,0.47413 z m 0.3556,-1.45627 q 0.72813,0 1.2192,-0.33866 0.50799,-0.3556 0.77893,-0.93133 0.28786,-0.57574 0.3556,-1.27 h -1.99813 q -1.0668,0 -1.524,0.37253 -0.44027,0.37253 -0.44027,0.93133 0,0.57574 0.42334,0.9144 0.44026,0.32173 1.18533,0.32173 z"
           style="font-style:normal;font-variant:normal;font-weight:500;font-stretch:normal;font-size:16.9333px;font-family:'DM Sans';-inkscape-font-specification:'DM Sans Medium';fill:#767676;fill-opacity:0.937255;stroke-width:0.264583"
           id="path924" />
      </g>
      <g
         id="g1124">
        <g
           id="g1141">
          <path
             style="fill:none;stroke:#767676;stroke-width:0.568025;stroke-linecap:butt;stroke-linejoin:miter;stroke-miterlimit:18.6;stroke-dasharray:none;stroke-opacity:0.937255"
             d="m 70.748954,136.74556 v 6.5098 h -5.770573"
             id="path915"
             sodipodi:nodetypes="ccc" />
          <path
             sodipodi:nodetypes="ccc"
             id="path919"
             d="m 76.021886,150.60743 v -7.35168 h -6.301422"
             style="fill:none;stroke:#767676;stroke-width:0.593007;stroke-linecap:butt;stroke-linejoin:miter;stroke-miterlimit:18.6;stroke-dasharray:none;stroke-opacity:0.937255" />
          <g
             transform="translate(-1.2473214,2.1166667)"
             id="g1016">
            <path
               d="m 67.406915,126.53663 h 9.491046 c 0.446144,0 0.805315,0.26148 0.805315,0.58628 v 6.90981 c 0,0.32482 -0.359171,0.5863 -0.805315,0.5863 h -9.491046 c -0.446144,0 -0.805314,-0.26148 -0.805314,-0.5863 v -6.90981 c 0,-0.3248 0.35917,-0.58628 0.805314,-0.58628 z"
               style="fill:none;stroke:#777777;stroke-width:0.583662;stroke-miterlimit:18.6;stroke-dasharray:none;stroke-opacity:0.937255"
               id="path977" />
            <g
               aria-label="$"
               transform="matrix(0.72691604,0,0,0.72691604,192.65632,-34.335447)"
               id="g981"
               style="font-style:normal;font-weight:normal;font-size:10.5833px;line-height:1.25;font-family:sans-serif;white-space:pre;inline-size:0;fill:#007e00;fill-opacity:1;stroke:none;stroke-width:0.647692;stroke-miterlimit:18.6;stroke-dasharray:none">
              <path
                 d="m -165.40216,231.68404 h -0.83715 l -0.005,-1.55545 q -0.64595,-0.0258 -1.25057,-0.1447 -0.60461,-0.11885 -1.17822,-0.33073 v -1.35391 q 0.59428,0.30489 1.19889,0.47025 0.60978,0.1602 1.23507,0.18087 v -1.60714 l -0.17054,-0.031 q -1.23506,-0.21704 -1.75699,-0.68213 -0.51676,-0.46508 -0.51676,-1.33841 0,-0.92501 0.63045,-1.44177 0.63562,-0.52193 1.80867,-0.56844 l 0.005,-1.19372 h 0.83715 v 1.17305 q 0.51676,0.0413 1.03353,0.12919 0.51676,0.0879 1.03869,0.22738 v 1.31257 q -0.51676,-0.21704 -1.03353,-0.33589 -0.51676,-0.12403 -1.03869,-0.14986 v 1.48311 l 0.16537,0.031 q 1.31257,0.20671 1.83967,0.69246 0.53227,0.48059 0.53227,1.42627 0,0.95084 -0.63045,1.46244 -0.63045,0.50642 -1.90686,0.57877 z m -0.83715,-5.87559 v -1.34875 q -0.36691,0.0207 -0.58911,0.20154 -0.21704,0.1757 -0.21704,0.44958 0,0.30489 0.20153,0.48059 0.20154,0.17053 0.60462,0.21704 z m 0.83715,1.68465 v 1.4366 q 0.44959,-0.005 0.67179,-0.1757 0.22738,-0.17053 0.22738,-0.5116 0,-0.3514 -0.20671,-0.52193 -0.2067,-0.1757 -0.69246,-0.22737 z"
                 style="font-style:normal;font-variant:normal;font-weight:bold;font-stretch:normal;font-family:sans-serif;-inkscape-font-specification:'sans-serif Bold';fill:#007e00;fill-opacity:1;stroke-width:0.647692;stroke-miterlimit:18.6;stroke-dasharray:none"
                 id="path979" />
            </g>
          </g>
          <g
             transform="translate(-13.013859,12.77404)"
             id="g1024">
            <path
               id="path1018"
               style="fill:none;stroke:#777777;stroke-width:0.583662;stroke-miterlimit:18.6;stroke-dasharray:none;stroke-opacity:0.937255"
               d="m 67.406915,126.53663 h 9.491046 c 0.446144,0 0.805315,0.26148 0.805315,0.58628 v 6.90981 c 0,0.32482 -0.359171,0.5863 -0.805315,0.5863 h -9.491046 c -0.446144,0 -0.805314,-0.26148 -0.805314,-0.5863 v -6.90981 c 0,-0.3248 0.35917,-0.58628 0.805314,-0.58628 z" />
            <g
               style="font-style:normal;font-weight:normal;font-size:10.5833px;line-height:1.25;font-family:sans-serif;white-space:pre;inline-size:0;fill:#007e00;fill-opacity:1;stroke:none;stroke-width:0.647692;stroke-miterlimit:18.6;stroke-dasharray:none"
               id="g1022"
               transform="matrix(0.72691604,0,0,0.72691604,192.65632,-34.335447)"
               aria-label="$">
              <path
                 id="path1020"
                 style="font-style:normal;font-variant:normal;font-weight:bold;font-stretch:normal;font-family:sans-serif;-inkscape-font-specification:'sans-serif Bold';fill:#007e00;fill-opacity:1;stroke-width:0.647692;stroke-miterlimit:18.6;stroke-dasharray:none"
                 d="m -165.40216,231.68404 h -0.83715 l -0.005,-1.55545 q -0.64595,-0.0258 -1.25057,-0.1447 -0.60461,-0.11885 -1.17822,-0.33073 v -1.35391 q 0.59428,0.30489 1.19889,0.47025 0.60978,0.1602 1.23507,0.18087 v -1.60714 l -0.17054,-0.031 q -1.23506,-0.21704 -1.75699,-0.68213 -0.51676,-0.46508 -0.51676,-1.33841 0,-0.92501 0.63045,-1.44177 0.63562,-0.52193 1.80867,-0.56844 l 0.005,-1.19372 h 0.83715 v 1.17305 q 0.51676,0.0413 1.03353,0.12919 0.51676,0.0879 1.03869,0.22738 v 1.31257 q -0.51676,-0.21704 -1.03353,-0.33589 -0.51676,-0.12403 -1.03869,-0.14986 v 1.48311 l 0.16537,0.031 q 1.31257,0.20671 1.83967,0.69246 0.53227,0.48059 0.53227,1.42627 0,0.95084 -0.63045,1.46244 -0.63045,0.50642 -1.90686,0.57877 z m -0.83715,-5.87559 v -1.34875 q -0.36691,0.0207 -0.58911,0.20154 -0.21704,0.1757 -0.21704,0.44958 0,0.30489 0.20153,0.48059 0.20154,0.17053 0.60462,0.21704 z m 0.83715,1.68465 v 1.4366 q 0.44959,-0.005 0.67179,-0.1757 0.22738,-0.17053 0.22738,-0.5116 0,-0.3514 -0.20671,-0.52193 -0.2067,-0.1757 -0.69246,-0.22737 z" />
            </g>
          </g>
          <g
             transform="translate(4.5690551,23.755259)"
             id="g1032">
            <g
               transform="translate(-0.7630276,0.5072202)"
               id="g1037">
              <path
                 d="m 67.406915,126.53663 h 9.491046 c 0.446144,0 0.805315,0.26148 0.805315,0.58628 v 6.90981 c 0,0.32482 -0.359171,0.5863 -0.805315,0.5863 h -9.491046 c -0.446144,0 -0.805314,-0.26148 -0.805314,-0.5863 v -6.90981 c 0,-0.3248 0.35917,-0.58628 0.805314,-0.58628 z"
                 style="fill:none;stroke:#777777;stroke-width:0.583662;stroke-miterlimit:18.6;stroke-dasharray:none;stroke-opacity:0.937255"
                 id="path1026" />
              <g
                 aria-label="$"
                 transform="matrix(0.72691604,0,0,0.72691604,192.65632,-34.335447)"
                 id="g1030"
                 style="font-style:normal;font-weight:normal;font-size:10.5833px;line-height:1.25;font-family:sans-serif;white-space:pre;inline-size:0;fill:#007e00;fill-opacity:1;stroke:none;stroke-width:0.647692;stroke-miterlimit:18.6;stroke-dasharray:none">
                <path
                   d="m -165.40216,231.68404 h -0.83715 l -0.005,-1.55545 q -0.64595,-0.0258 -1.25057,-0.1447 -0.60461,-0.11885 -1.17822,-0.33073 v -1.35391 q 0.59428,0.30489 1.19889,0.47025 0.60978,0.1602 1.23507,0.18087 v -1.60714 l -0.17054,-0.031 q -1.23506,-0.21704 -1.75699,-0.68213 -0.51676,-0.46508 -0.51676,-1.33841 0,-0.92501 0.63045,-1.44177 0.63562,-0.52193 1.80867,-0.56844 l 0.005,-1.19372 h 0.83715 v 1.17305 q 0.51676,0.0413 1.03353,0.12919 0.51676,0.0879 1.03869,0.22738 v 1.31257 q -0.51676,-0.21704 -1.03353,-0.33589 -0.51676,-0.12403 -1.03869,-0.14986 v 1.48311 l 0.16537,0.031 q 1.31257,0.20671 1.83967,0.69246 0.53227,0.48059 0.53227,1.42627 0,0.95084 -0.63045,1.46244 -0.63045,0.50642 -1.90686,0.57877 z m -0.83715,-5.87559 v -1.34875 q -0.36691,0.0207 -0.58911,0.20154 -0.21704,0.1757 -0.21704,0.44958 0,0.30489 0.20153,0.48059 0.20154,0.17053 0.60462,0.21704 z m 0.83715,1.68465 v 1.4366 q 0.44959,-0.005 0.67179,-0.1757 0.22738,-0.17053 0.22738,-0.5116 0,-0.3514 -0.20671,-0.52193 -0.2067,-0.1757 -0.69246,-0.22737 z"
                   style="font-style:normal;font-variant:normal;font-weight:bold;font-stretch:normal;font-family:sans-serif;-inkscape-font-specification:'sans-serif Bold';fill:#007e00;fill-opacity:1;stroke-width:0.647692;stroke-miterlimit:18.6;stroke-dasharray:none"
                   id="path1028" />
              </g>
            </g>
          </g>
        </g>
      </g>
    </g>
  </g>
</svg>
